<?xml version="1.0" encoding="UTF-8" standalone="no"?>
<svg
   width="156.00522mm"
   height="46.59742mm"
   viewBox="0 0 156.00522 46.59742"
   version="1.1"
   id="svg8"
   xml:space="preserve"
   xmlns:xlink="http://www.w3.org/1999/xlink"
   xmlns="http://www.w3.org/2000/svg"
   xmlns:svg="http://www.w3.org/2000/svg"
   xmlns:rdf="http://www.w3.org/1999/02/22-rdf-syntax-ns#"
   xmlns:cc="http://creativecommons.org/ns#"
   xmlns:dc="http://purl.org/dc/elements/1.1/"><defs
     id="defs2"><linearGradient
       id="linearGradient10"><stop
         style="stop-color:#7184ac;stop-opacity:1;"
         offset="0.17983194"
         id="stop10" /><stop
         style="stop-color:#ffffff;stop-opacity:1;"
         offset="1"
         id="stop11" /></linearGradient><linearGradient
       id="linearGradient18"><stop
         style="stop-color:#000000;stop-opacity:1;"
         offset="0"
         id="stop18" /><stop
         style="stop-color:#ffffff;stop-opacity:1;"
         offset="1"
         id="stop19" /></linearGradient><linearGradient
       xlink:href="#linearGradient18"
       id="linearGradient19"
       x1="65.891655"
       y1="114.36268"
       x2="145.71117"
       y2="114.36268"
       gradientUnits="userSpaceOnUse"
       gradientTransform="translate(0.063708,-0.00715)" /><linearGradient
       xlink:href="#linearGradient10"
       id="linearGradient11"
       x1="65.891655"
       y1="114.36268"
       x2="145.71117"
       y2="114.36268"
       gradientUnits="userSpaceOnUse"
       gradientTransform="translate(0.063708,-0.00715)" /></defs><metadata
     id="metadata5"><rdf:RDF><cc:Work
         rdf:about=""><dc:format>image/svg+xml</dc:format><dc:type
           rdf:resource="http://purl.org/dc/dcmitype/StillImage" /></cc:Work></rdf:RDF></metadata><g
     id="layer4"
     transform="matrix(1.0000235,0,0,0.99129143,-65.894142,-104.11163)"
     style="display:none"><text
       xml:space="preserve"
       style="font-style:normal;font-weight:normal;font-size:14.4283px;line-height:1.25;font-family:sans-serif;fill:#000000;fill-opacity:1;stroke:none;stroke-width:0.404744;stroke-dasharray:none"
       x="145.44029"
       y="148.84854"
       id="text3"
       transform="scale(1.0000298,0.9999702)"><tspan
         id="tspan3"
         style="font-style:normal;font-variant:normal;font-weight:normal;font-stretch:normal;font-size:14.4283px;font-family:'Century Gothic Std';-inkscape-font-specification:'Century Gothic Std, Normal';font-variant-ligatures:normal;font-variant-caps:normal;font-variant-numeric:normal;font-variant-east-asian:normal;stroke:#000000;stroke-width:0.404744;stroke-dasharray:none;stroke-opacity:1"
         x="145.44029"
         y="148.84854">computing</tspan></text><text
       xml:space="preserve"
       style="font-style:normal;font-weight:normal;font-size:18.3827px;line-height:1.25;font-family:sans-serif;fill:#000000;fill-opacity:1;stroke:none;stroke-width:0.409452;stroke-dasharray:none"
       x="148.27409"
       y="135.27005"
       id="text2"
       transform="scale(0.9964994,1.0035129)"><tspan
         id="tspan2"
         style="font-style:normal;font-variant:normal;font-weight:normal;font-stretch:normal;font-size:18.3827px;font-family:'Century Gothic Std';-inkscape-font-specification:'Century Gothic Std, Normal';font-variant-ligatures:normal;font-variant-caps:normal;font-variant-numeric:normal;font-variant-east-asian:normal;stroke:#000000;stroke-width:0.409452;stroke-dasharray:none;stroke-opacity:1"
         x="148.27409"
         y="135.27005"
         dx="-2.0611687">research</tspan></text><text
       xml:space="preserve"
       style="font-style:normal;font-weight:normal;font-size:15.1101px;line-height:1.25;font-family:sans-serif;letter-spacing:-0.153142px;fill:#000000;fill-opacity:1;stroke:none;stroke-width:0.49058;stroke-dasharray:none"
       x="145.57745"
       y="120.65895"
       id="text1"
       transform="scale(0.99907605,1.0009248)"><tspan
         id="tspan1"
         style="font-style:normal;font-variant:normal;font-weight:normal;font-stretch:normal;font-size:15.1101px;font-family:'Century Gothic Std';-inkscape-font-specification:'Century Gothic Std, Normal';font-variant-ligatures:normal;font-variant-caps:normal;font-variant-numeric:normal;font-variant-east-asian:normal;letter-spacing:-0.153142px;stroke:#000000;stroke-width:0.49058;stroke-dasharray:none;stroke-opacity:1"
         x="145.57745"
         y="120.65895"
         dx="0">advanced</tspan></text><text
       xml:space="preserve"
       style="font-style:normal;font-weight:normal;font-size:49.7763px;line-height:1.25;font-family:sans-serif;letter-spacing:-1.2453px;display:inline;fill:#000000;fill-opacity:1;stroke:none;stroke-width:0;stroke-dasharray:none"
       x="115.76321"
       y="147.3349"
       id="text4-9"
       transform="matrix(0.99191852,0,0,1.01698,0.00248323,-1.6736356)"><tspan
         id="tspan4-2"
         style="font-style:normal;font-variant:normal;font-weight:normal;font-stretch:normal;font-size:49.7763px;font-family:'Century Gothic Std';-inkscape-font-specification:'Century Gothic Std, Normal';font-variant-ligatures:normal;font-variant-caps:normal;font-variant-numeric:normal;font-variant-east-asian:normal;letter-spacing:-1.2453px;fill:#000000;fill-opacity:1;stroke:#000000;stroke-width:0;stroke-dasharray:none;stroke-opacity:0"
         x="115.76321"
         y="147.3349"
         dx="-6.6114607"><tspan
           style="letter-spacing:0px;fill:#000000;fill-opacity:1;stroke:#ffffff;stroke-width:0;stroke-dasharray:none;stroke-opacity:1"
           id="tspan5-0"
           dx="-5.7772913">c</tspan></tspan></text><path
       id="text4"
       style="font-style:normal;font-weight:normal;font-size:49.6274px;line-height:1.25;font-family:sans-serif;letter-spacing:-1.24157px;display:inline;fill:#000000;fill-opacity:1;stroke:none;stroke-width:0;stroke-dasharray:none"
       d="m 86.780353,121.18591 c -7.746156,0 -13.905078,6.3719 -13.905078,13.94748 0,7.57559 6.007722,14.04741 13.804174,14.04741 4.174877,0 7.588034,-1.83176 10.505417,-5.34362 l 0.0024,4.58371 3.394274,-0.001 -0.001,-26.5537 -3.392613,-6e-4 -0.0019,4.87869 c -2.665885,-3.71253 -6.079713,-5.55727 -10.405487,-5.55727 z m 26.624967,0 c -2.71619,0 -4.90263,1.48826 -6.91461,4.39809 l 10e-4,-3.71959 -3.50462,7e-5 -0.002,26.5549 3.5059,1.3e-4 0.0231,-10.02554 c 0,-3.61221 0.10047,-6.37105 0.55314,-8.07681 0.98417,-3.58297 3.69526,-5.73476 6.14457,-5.82599 0.88537,-1.06362 1.79287,-1.83956 2.98796,-2.57977 -0.56225,-0.2671 -1.75672,-0.72546 -2.7949,-0.72546 z m -26.795633,3.39261 c 5.985664,0 10.575308,4.59948 10.575308,10.77032 0,6.62237 -5.073985,10.54103 -10.556652,10.54103 -5.985664,0 -10.42415,-4.88705 -10.42415,-10.65654 0,-5.71932 4.26893,-10.65481 10.405494,-10.65481 z"
       transform="matrix(0.99997651,0,0,1.0087851,0.00248323,-1.6736356)" /></g><g
     id="g16"
     transform="matrix(1.0000235,0,0,0.99129143,-65.894142,-104.11163)"
     style="display:inline"><path
       style="font-size:14.4283px;line-height:1.25;font-family:'Century Gothic Std';-inkscape-font-specification:'Century Gothic Std, Normal';fill:#ffffff;stroke:#ffffff;stroke-width:0.404744"
       d="m 153.18829,146.79972 c -0.72142,0.89456 -1.64483,1.34183 -2.75581,1.34183 -1.97667,0 -3.24636,-1.45725 -3.24636,-3.13094 0,-1.64482 1.28412,-3.07322 3.23194,-3.07322 1.15426,0 2.0921,0.43284 2.77023,1.3274 l 0.79356,-0.49056 c -0.70699,-1.18312 -2.04882,-1.78911 -3.52051,-1.78911 -2.52495,0 -4.2852,1.84682 -4.2852,4.09763 0,2.13539 1.68811,3.95336 4.21306,3.95336 1.54383,0 2.84237,-0.59156 3.59265,-1.7314 z m 6.31959,-5.8146 c -2.2941,0 -3.99664,1.86125 -3.99664,4.05435 0,2.17867 1.68811,4.01107 3.99664,4.01107 2.30852,0 3.99663,-1.8324 3.99663,-4.01107 0,-2.1931 -1.70253,-4.05435 -3.99663,-4.05435 z m 0,0.95227 c 1.63039,0 2.98665,1.41397 2.98665,3.11651 0,1.67368 -1.26969,3.04437 -2.98665,3.04437 -1.7314,0 -2.98666,-1.37069 -2.98666,-3.04437 0,-1.70254 1.34183,-3.11651 2.98666,-3.11651 z m 12.00435,3.56379 c 0,-0.70699 0.0289,-1.38512 0.27414,-2.00554 0.38956,-0.98112 1.22641,-1.55825 2.17867,-1.55825 1.03884,0 1.68811,0.75027 1.7314,1.4284 0.0144,0.28856 0.0866,0.73584 0.0866,1.29854 v 4.18421 h 0.98112 v -4.54491 c 0,-2.17868 -1.02441,-3.31851 -2.61152,-3.31851 -1.12541,0 -2.13539,0.62041 -2.81352,1.84682 -0.41842,-1.24083 -1.25526,-1.84682 -2.42395,-1.84682 -1.09655,0 -1.94782,0.53384 -2.62595,1.51497 v -1.31298 h -0.98113 v 7.66143 h 0.98113 v -3.24637 c 0,-1.15426 0.101,-2.06324 0.64927,-2.77023 0.43285,-0.5627 1.11098,-0.89455 1.78911,-0.89455 1.00998,0 1.68811,0.72141 1.7314,1.55825 0.0144,0.34628 0.0721,0.83684 0.0721,1.4284 v 3.9245 h 0.98112 z m 8.33956,-4.31407 h -0.98113 v 10.46052 h 0.98113 v -4.11206 c 0.83684,1.00998 1.87567,1.50054 3.07322,1.50054 2.25082,0 3.93893,-1.86125 3.93893,-4.03992 0,-2.17868 -1.7314,-4.01107 -3.96778,-4.01107 -1.22641,0 -2.27967,0.53384 -3.04437,1.60154 z m 2.97222,0.75028 c 1.76026,0 3.02995,1.44283 3.02995,3.08765 0,1.67368 -1.32741,3.11651 -3.02995,3.11651 -1.57268,0 -3.04437,-1.18312 -3.04437,-3.08765 0,-1.77468 1.32741,-3.11651 3.04437,-3.11651 z m 11.44163,2.98665 c 0,1.09655 0.0144,1.8324 -0.59156,2.48167 -0.40399,0.41842 -1.02441,0.67813 -1.73139,0.67813 -0.9667,0 -1.76025,-0.44728 -2.12096,-1.2264 -0.21643,-0.46171 -0.21643,-1.12541 -0.21643,-1.9334 v -3.73693 h -1.03883 v 3.96779 c 0,2.58266 1.18312,3.88121 3.37622,3.88121 2.1931,0 3.36179,-1.29855 3.36179,-3.88121 v -3.96779 h -1.03884 z m 4.08321,-3.73693 h -1.35626 v 0.8657 h 1.35626 v 6.79573 h 0.98112 v -6.79573 h 1.57269 v -0.8657 h -1.57269 v -2.8568 h -0.98112 z m 3.88122,7.66143 h 0.98113 v -7.66143 h -0.98113 z m 0.47614,-10.82122 c -0.43285,0 -0.80799,0.34628 -0.80799,0.80798 0,0.44728 0.36071,0.82241 0.80799,0.82241 0.44728,0 0.82241,-0.37513 0.82241,-0.82241 0,-0.44728 -0.37513,-0.80798 -0.82241,-0.80798 z m 3.52051,3.15979 h -0.98112 v 7.66143 h 0.98112 v -3.21751 c 0,-1.21198 0.0866,-1.96225 0.6637,-2.71252 0.51942,-0.67813 1.19755,-1.03884 2.01997,-1.03884 1.48611,0 2.04882,0.99556 2.04882,2.79909 v 4.16978 h 0.98112 v -4.29963 c 0,-2.40953 -1.16869,-3.56379 -2.84238,-3.56379 -1.1254,0 -2.07767,0.53384 -2.87123,1.57268 z m 15.42386,0 h -0.99555 v 1.32741 c -0.80799,-0.95227 -1.71697,-1.5294 -3.07323,-1.5294 -2.03439,0 -3.9245,1.70254 -3.9245,3.98221 0,2.26524 1.80354,3.88121 3.9245,3.88121 1.19755,0 2.30853,-0.49056 3.07323,-1.45726 v 0.57713 c 0,0.59157 -0.0433,1.13984 -0.33185,1.67369 -0.46171,0.83684 -1.39955,1.29854 -2.66924,1.29854 -1.35626,0 -2.25081,-0.47613 -2.82794,-1.48611 h -1.0677 c 0.67813,1.48611 1.74583,2.38067 3.95336,2.38067 1.45725,0 2.59709,-0.51942 3.24636,-1.39955 0.62042,-0.85127 0.69256,-1.8901 0.69256,-3.14537 z m -3.91007,0.75028 c 1.58712,0 2.9578,1.16869 2.9578,3.01551 0,1.78911 -1.25526,2.94337 -2.92894,2.94337 -2.01996,0 -3.10208,-1.34183 -3.10208,-2.87123 0,-1.77468 1.35626,-3.08765 3.07322,-3.08765 z"
       id="text11"
       transform="scale(1.0000298,0.9999702)"
       aria-label="computing" /><path
       style="font-size:18.3827px;line-height:1.25;font-family:'Century Gothic Std';-inkscape-font-specification:'Century Gothic Std, Normal';fill:#ffffff;stroke:#ffffff;stroke-width:0.409452"
       d="m 148.43723,125.50884 h -1.32355 v 9.76121 h 1.32355 v -3.71331 c 0,-1.32355 0.0368,-2.3346 0.20221,-2.95961 0.36766,-1.34194 1.19488,-2.13239 2.11401,-2.13239 0.27574,0 0.51472,0.11029 0.66178,0.18382 l 0.66178,-1.06619 c -0.25736,-0.14706 -0.55148,-0.33089 -1.12135,-0.33089 -0.99266,0 -1.78312,0.60663 -2.51843,1.67282 z m 14.24661,4.98171 c -0.0368,-3.23536 -2.27945,-5.23907 -5.05524,-5.23907 -3.05153,0 -5.01848,2.50005 -5.01848,5.16554 0,2.61034 1.85665,5.09201 5.09201,5.09201 2.13239,0 3.65816,-0.97429 4.65082,-2.92285 l -1.04781,-0.55149 c -0.71693,1.1765 -1.69121,2.33461 -3.73169,2.33461 -2.09563,0 -3.62139,-1.63606 -3.67654,-3.87875 z m -8.65825,-1.10296 c 0.56986,-1.98534 1.87503,-2.92285 3.62139,-2.92285 1.69121,0 3.14344,0.90075 3.65816,2.92285 z m 10.07371,4.74273 c 0.69854,0.90075 1.80151,1.39709 2.88609,1.39709 1.76473,0 2.94123,-1.36032 2.94123,-2.88609 0,-1.76474 -1.25003,-2.26107 -3.49272,-3.56624 -0.44118,-0.25736 -0.75369,-0.80884 -0.75369,-1.30517 0,-0.73531 0.66178,-1.30517 1.47062,-1.30517 0.79046,0 1.3787,0.36765 1.96695,0.93751 l 0.80884,-0.82722 c -0.82722,-0.80884 -1.63606,-1.32355 -2.70226,-1.32355 -1.489,0 -2.68387,1.04781 -2.68387,2.59196 0,1.70959 1.13972,2.24269 3.38241,3.49271 0.47795,0.25736 0.80884,0.79046 0.80884,1.36032 0,0.91914 -0.8456,1.61768 -1.8015,1.61768 -0.73531,0 -1.41547,-0.38604 -2.04048,-1.08458 z m 17.66578,-3.63977 c -0.0368,-3.23536 -2.27945,-5.23907 -5.05524,-5.23907 -3.05153,0 -5.01848,2.50005 -5.01848,5.16554 0,2.61034 1.85666,5.09201 5.09201,5.09201 2.1324,0 3.65816,-0.97429 4.65083,-2.92285 l -1.04782,-0.55149 c -0.71692,1.1765 -1.69121,2.33461 -3.73169,2.33461 -2.09562,0 -3.62139,-1.63606 -3.67654,-3.87875 z m -8.65825,-1.10296 c 0.56987,-1.98534 1.87504,-2.92285 3.62139,-2.92285 1.69121,0 3.14345,0.90075 3.65816,2.92285 z m 19.48566,-2.09563 c -0.97429,-1.36032 -2.31622,-2.04048 -3.89714,-2.04048 -2.83093,0 -5.03685,2.3346 -5.03685,5.11039 0,2.77579 2.15077,5.14716 5.00009,5.14716 1.52576,0 2.8677,-0.62502 3.9339,-1.91181 v 1.67283 h 1.23164 v -9.76121 h -1.23164 z m -3.78684,-0.82722 c 2.18754,0 3.87875,1.70959 3.87875,3.97066 0,2.42652 -1.89342,3.9339 -3.89713,3.9339 -2.18754,0 -3.84199,-1.85665 -3.84199,-3.97067 0,-2.09562 1.61768,-3.93389 3.86037,-3.93389 z m 8.67664,-0.9559 h -1.32355 v 9.76121 h 1.32355 v -3.71331 c 0,-1.32355 0.0368,-2.3346 0.20221,-2.95961 0.36766,-1.34194 1.19488,-2.13239 2.11401,-2.13239 0.27575,0 0.51472,0.11029 0.66178,0.18382 l 0.66178,-1.06619 c -0.25736,-0.14706 -0.55148,-0.33089 -1.12135,-0.33089 -0.99266,0 -1.78312,0.60663 -2.51843,1.67282 z m 13.05173,7.15087 c -0.91913,1.13972 -2.09562,1.70959 -3.51109,1.70959 -2.51843,0 -4.13611,-1.85665 -4.13611,-3.98905 0,-2.09563 1.63606,-3.91551 4.11773,-3.91551 1.47061,0 2.66549,0.55148 3.52947,1.69121 l 1.01105,-0.62502 c -0.90075,-1.50738 -2.61034,-2.27945 -4.48538,-2.27945 -3.21697,0 -5.45966,2.35298 -5.45966,5.22069 0,2.72063 2.15078,5.03686 5.36775,5.03686 1.96695,0 3.62139,-0.7537 4.57729,-2.20593 z m 3.41917,2.61034 h 1.25003 v -4.09934 c 0,-1.56253 0.12867,-2.51843 0.8456,-3.45595 0.66178,-0.86399 1.52576,-1.32355 2.57358,-1.32355 1.89342,0 2.59196,1.2684 2.59196,3.56624 v 5.3126 h 1.25002 v -5.60672 c 0,-2.92285 -1.489,-4.41185 -3.60301,-4.41185 -1.45223,0 -2.64711,0.68016 -3.65815,2.00371 v -5.51481 h -1.25003 z"
       id="text12"
       transform="scale(0.9964994,1.0035129)"
       aria-label="research" /><path
       style="font-size:15.1101px;line-height:1.25;font-family:'Century Gothic Std';-inkscape-font-specification:'Century Gothic Std, Normal';letter-spacing:-0.153142px;fill:#ffffff;stroke:#ffffff;stroke-width:0.49058"
       d="m 153.70669,114.10117 c -0.80084,-1.11815 -1.90388,-1.67722 -3.20334,-1.67722 -2.32696,0 -4.14017,1.91898 -4.14017,4.2006 0,2.28163 1.76788,4.23083 4.10995,4.23083 1.25413,0 2.35717,-0.51374 3.23356,-1.57145 v 1.37502 h 1.01237 v -8.02346 h -1.01237 z m -3.11268,-0.67996 c 1.7981,0 3.18823,1.40524 3.18823,3.26378 0,1.99454 -1.55634,3.23357 -3.20334,3.23357 -1.79811,0 -3.15801,-1.52612 -3.15801,-3.26379 0,-1.72255 1.32968,-3.23356 3.17312,-3.23356 z m 13.29485,7.23774 h 1.02749 v -11.12103 h -1.02749 v 4.56325 c -0.80083,-1.11815 -1.90387,-1.67722 -3.20334,-1.67722 -2.32695,0 -4.14017,1.91898 -4.14017,4.2006 0,2.28163 1.76789,4.23083 4.10995,4.23083 1.25414,0 2.35718,-0.51374 3.23356,-1.57145 z m -3.11268,-7.23774 c 1.7981,0 3.17312,1.40524 3.17312,3.26378 0,1.99454 -1.54123,3.23357 -3.18823,3.23357 -1.7981,0 -3.15801,-1.52612 -3.15801,-3.26379 0,-1.72255 1.32969,-3.23356 3.17312,-3.23356 z m 9.26044,7.23774 h 0.18132 l 3.67176,-8.02346 h -1.10304 l -2.65938,5.8325 -2.68959,-5.8325 h -1.10304 z m 12.25227,-6.55778 c -0.80084,-1.11815 -1.90388,-1.67722 -3.20334,-1.67722 -2.32696,0 -4.14017,1.91898 -4.14017,4.2006 0,2.28163 1.76788,4.23083 4.10995,4.23083 1.25413,0 2.35717,-0.51374 3.23356,-1.57145 v 1.37502 h 1.01237 v -8.02346 h -1.01237 z m -3.11268,-0.67996 c 1.7981,0 3.18823,1.40524 3.18823,3.26378 0,1.99454 -1.55634,3.23357 -3.20334,3.23357 -1.79811,0 -3.15802,-1.52612 -3.15802,-3.26379 0,-1.72255 1.32969,-3.23356 3.17313,-3.23356 z m 7.32636,-0.78572 h -1.02749 v 8.02346 h 1.02749 v -3.36955 c 0,-1.26925 0.0907,-2.05498 0.69507,-2.8407 0.54396,-0.71017 1.25413,-1.08793 2.11541,-1.08793 1.55634,0 2.14563,1.0426 2.14563,2.93136 v 4.36682 h 1.02749 v -4.50281 c 0,-2.52339 -1.22392,-3.73219 -2.97669,-3.73219 -1.17859,0 -2.17585,0.55907 -3.00691,1.647 z m 15.0023,5.87783 c -0.75551,0.93682 -1.72255,1.40524 -2.88603,1.40524 -2.07009,0 -3.39977,-1.52612 -3.39977,-3.2789 0,-1.72255 1.34479,-3.21845 3.38466,-3.21845 1.20881,0 2.19096,0.45331 2.90114,1.39013 l 0.83105,-0.51374 c -0.74039,-1.23903 -2.14563,-1.87365 -3.68686,-1.87365 -2.64427,0 -4.4877,1.93409 -4.4877,4.29126 0,2.2363 1.76788,4.14017 4.41215,4.14017 1.61678,0 2.97669,-0.61951 3.76241,-1.81321 z m 10.55991,-1.783 c -0.0302,-2.65937 -1.87365,-4.30637 -4.15528,-4.30637 -2.50828,0 -4.12506,2.05497 -4.12506,4.24593 0,2.14564 1.52612,4.1855 4.1855,4.1855 1.75277,0 3.00691,-0.80083 3.82286,-2.4025 l -0.86128,-0.45331 c -0.58929,0.96705 -1.39013,1.91899 -3.06735,1.91899 -1.72255,0 -2.97669,-1.3448 -3.02202,-3.18824 z m -7.11686,-0.9066 c 0.46841,-1.63189 1.54123,-2.40251 2.97669,-2.40251 1.39013,0 2.58383,0.7404 3.00691,2.40251 z m 15.87867,4.83523 h 1.02748 v -11.12103 h -1.02748 v 4.56325 c -0.80084,-1.11815 -1.90388,-1.67722 -3.20334,-1.67722 -2.32696,0 -4.14017,1.91898 -4.14017,4.2006 0,2.28163 1.76788,4.23083 4.10995,4.23083 1.25413,0 2.35717,-0.51374 3.23356,-1.57145 z m -3.11268,-7.23774 c 1.7981,0 3.17312,1.40524 3.17312,3.26378 0,1.99454 -1.54123,3.23357 -3.18823,3.23357 -1.79811,0 -3.15801,-1.52612 -3.15801,-3.26379 0,-1.72255 1.32968,-3.23356 3.17312,-3.23356 z"
       id="text13"
       transform="scale(0.99907605,1.0009248)"
       aria-label="advanced" /><path
       style="font-size:49.7763px;line-height:1.25;font-family:'Century Gothic Std';-inkscape-font-specification:'Century Gothic Std, Normal';letter-spacing:0px;fill:#ffffff;stroke:#ffffff;stroke-width:0"
       d="m 136.71579,140.26667 c -2.48882,3.08613 -5.6745,4.62919 -9.50728,4.62919 -6.81935,0 -11.19966,-5.0274 -11.19966,-10.80146 0,-5.67449 4.43009,-10.60235 11.14989,-10.60235 3.9821,0 7.21756,1.49329 9.55705,4.57942 l 2.73769,-1.69239 c -2.43903,-4.08166 -7.06823,-6.17226 -12.14541,-6.17226 -8.71086,0 -14.78356,6.37136 -14.78356,14.13647 0,7.36689 5.82382,13.6387 14.53468,13.6387 5.32606,0 9.80593,-2.04083 12.39429,-5.97315 z"
       id="text15"
       transform="matrix(0.99191852,0,0,1.01698,0.00248323,-1.6736356)"
       aria-label="c" /><path
       id="path16"
       style="font-style:normal;font-weight:normal;font-size:49.6274px;line-height:1.25;font-family:sans-serif;letter-spacing:-1.24157px;display:inline;fill:#ffffff;fill-opacity:1;stroke:none;stroke-width:0;stroke-dasharray:none"
       d="m 86.780353,121.18591 c -7.746156,0 -13.905078,6.3719 -13.905078,13.94748 0,7.57559 6.007722,14.04741 13.804174,14.04741 4.174877,0 7.588034,-1.83176 10.505417,-5.34362 l 0.0024,4.58371 3.394274,-0.001 -0.001,-26.5537 -3.392613,-6e-4 -0.0019,4.87869 c -2.665885,-3.71253 -6.079713,-5.55727 -10.405487,-5.55727 z m 26.624967,0 c -2.71619,0 -4.90263,1.48826 -6.91461,4.39809 l 10e-4,-3.71959 -3.50462,7e-5 -0.002,26.5549 3.5059,1.3e-4 0.0231,-10.02554 c 0,-3.61221 0.10047,-6.37105 0.55314,-8.07681 0.98417,-3.58297 3.69526,-5.73476 6.14457,-5.82599 0.88537,-1.06362 1.79287,-1.83956 2.98796,-2.57977 -0.56225,-0.2671 -1.75672,-0.72546 -2.7949,-0.72546 z m -26.795633,3.39261 c 5.985664,0 10.575308,4.59948 10.575308,10.77032 0,6.62237 -5.073985,10.54103 -10.556652,10.54103 -5.985664,0 -10.42415,-4.88705 -10.42415,-10.65654 0,-5.71932 4.26893,-10.65481 10.405494,-10.65481 z"
       transform="matrix(0.99997651,0,0,1.0087851,0.00248323,-1.6736356)" /></g><g
     id="g7"
     transform="matrix(1.0000235,0,0,0.99129143,-65.894142,-104.11163)"
     style="display:none;fill:#002147;fill-opacity:1;stroke:#002147;stroke-opacity:1"><text
       xml:space="preserve"
       style="font-style:normal;font-weight:normal;font-size:14.4283px;line-height:1.25;font-family:sans-serif;display:inline;fill:#002147;fill-opacity:1;stroke:#002147;stroke-width:0.404744;stroke-dasharray:none;stroke-opacity:1"
       x="145.44029"
       y="148.84854"
       id="text7"
       transform="scale(1.0000298,0.9999702)"><tspan
         id="tspan6"
         style="font-style:normal;font-variant:normal;font-weight:normal;font-stretch:normal;font-size:14.4283px;font-family:'Century Gothic Std';-inkscape-font-specification:'Century Gothic Std, Normal';font-variant-ligatures:normal;font-variant-caps:normal;font-variant-numeric:normal;font-variant-east-asian:normal;fill:#002147;fill-opacity:1;stroke:#002147;stroke-width:0.404744;stroke-dasharray:none;stroke-opacity:1"
         x="145.44029"
         y="148.84854">computing</tspan></text><text
       xml:space="preserve"
       style="font-style:normal;font-weight:normal;font-size:18.3827px;line-height:1.25;font-family:sans-serif;display:inline;fill:#002147;fill-opacity:1;stroke:#002147;stroke-width:0.409452;stroke-dasharray:none;stroke-opacity:1"
       x="148.27409"
       y="135.27005"
       id="text6"
       transform="scale(0.9964994,1.0035129)"><tspan
         id="tspan5"
         style="font-style:normal;font-variant:normal;font-weight:normal;font-stretch:normal;font-size:18.3827px;font-family:'Century Gothic Std';-inkscape-font-specification:'Century Gothic Std, Normal';font-variant-ligatures:normal;font-variant-caps:normal;font-variant-numeric:normal;font-variant-east-asian:normal;fill:#002147;fill-opacity:1;stroke:#002147;stroke-width:0.409452;stroke-dasharray:none;stroke-opacity:1"
         x="148.27409"
         y="135.27005"
         dx="-2.0611687">research</tspan></text><text
       xml:space="preserve"
       style="font-style:normal;font-weight:normal;font-size:15.1101px;line-height:1.25;font-family:sans-serif;letter-spacing:-0.153142px;display:inline;fill:#002147;fill-opacity:1;stroke:#002147;stroke-width:0.49058;stroke-dasharray:none;stroke-opacity:1"
       x="145.57745"
       y="120.65895"
       id="text5"
       transform="scale(0.99907605,1.0009248)"><tspan
         id="tspan4"
         style="font-style:normal;font-variant:normal;font-weight:normal;font-stretch:normal;font-size:15.1101px;font-family:'Century Gothic Std';-inkscape-font-specification:'Century Gothic Std, Normal';font-variant-ligatures:normal;font-variant-caps:normal;font-variant-numeric:normal;font-variant-east-asian:normal;letter-spacing:-0.153142px;fill:#002147;fill-opacity:1;stroke:#002147;stroke-width:0.49058;stroke-dasharray:none;stroke-opacity:1"
         x="145.57745"
         y="120.65895"
         dx="0">advanced</tspan></text><text
       xml:space="preserve"
       style="font-style:normal;font-weight:normal;font-size:49.7763px;line-height:1.25;font-family:sans-serif;letter-spacing:-1.2453px;display:inline;opacity:1;fill:#002147;fill-opacity:1;stroke:none;stroke-width:0;stroke-dasharray:none"
       x="115.76321"
       y="147.3349"
       id="text8"
       transform="matrix(0.99191852,0,0,1.01698,0.00248323,-1.6736356)"><tspan
         id="tspan8"
         style="font-style:normal;font-variant:normal;font-weight:normal;font-stretch:normal;font-size:49.7763px;font-family:'Century Gothic Std';-inkscape-font-specification:'Century Gothic Std, Normal';font-variant-ligatures:normal;font-variant-caps:normal;font-variant-numeric:normal;font-variant-east-asian:normal;letter-spacing:-1.2453px;fill:#002147;fill-opacity:1;stroke:#000000;stroke-width:0;stroke-dasharray:none;stroke-opacity:0"
         x="115.76321"
         y="147.3349"
         dx="-6.6114607"><tspan
           style="letter-spacing:0px;fill:#002147;fill-opacity:1;stroke:#ffffff;stroke-width:0;stroke-dasharray:none;stroke-opacity:1"
           id="tspan7"
           dx="-5.7772913">c</tspan></tspan></text><path
       id="path7"
       style="font-style:normal;font-weight:normal;font-size:49.6274px;line-height:1.25;font-family:sans-serif;letter-spacing:-1.24157px;display:inline;opacity:1;fill:#002147;fill-opacity:1;stroke:none;stroke-width:0;stroke-dasharray:none"
       d="m 86.780353,121.18591 c -7.746156,0 -13.905078,6.3719 -13.905078,13.94748 0,7.57559 6.007722,14.04741 13.804174,14.04741 4.174877,0 7.588034,-1.83176 10.505417,-5.34362 l 0.0024,4.58371 3.394274,-0.001 -0.001,-26.5537 -3.392613,-6e-4 -0.0019,4.87869 c -2.665885,-3.71253 -6.079713,-5.55727 -10.405487,-5.55727 z m 26.624967,0 c -2.71619,0 -4.90263,1.48826 -6.91461,4.39809 l 10e-4,-3.71959 -3.50462,7e-5 -0.002,26.5549 3.5059,1.3e-4 0.0231,-10.02554 c 0,-3.61221 0.10047,-6.37105 0.55314,-8.07681 0.98417,-3.58297 3.69526,-5.73476 6.14457,-5.82599 0.88537,-1.06362 1.79287,-1.83956 2.98796,-2.57977 -0.56225,-0.2671 -1.75672,-0.72546 -2.7949,-0.72546 z m -26.795633,3.39261 c 5.985664,0 10.575308,4.59948 10.575308,10.77032 0,6.62237 -5.073985,10.54103 -10.556652,10.54103 -5.985664,0 -10.42415,-4.88705 -10.42415,-10.65654 0,-5.71932 4.26893,-10.65481 10.405494,-10.65481 z"
       transform="matrix(0.99997651,0,0,1.0087851,0.00248323,-1.6736356)" /></g><g
     id="layer2"
     transform="translate(-65.891658,-105.77069)"
     style="display:inline"><path
       style="display:none;opacity:1;fill:#000000;fill-opacity:1;stroke:none;stroke-width:0.264583px;stroke-linecap:butt;stroke-linejoin:miter;stroke-opacity:1"
       d="m 65.891658,122.95468 c 0,0 11.454551,-12.41873 39.821242,-12.50526 28.36669,-0.0865 39.99826,12.45094 39.99826,12.45094 0,0 -15.61704,-17.12967 -40.01005,-17.12967 -24.393018,0 -39.809452,17.18399 -39.809452,17.18399 z"
       id="path8" /><path
       style="display:none;opacity:1;fill:#002147;fill-opacity:1;stroke:none;stroke-width:0.264583px;stroke-linecap:butt;stroke-linejoin:miter;stroke-opacity:1"
       d="m 65.891658,122.95468 c 0,0 11.454551,-12.41873 39.821242,-12.50526 28.36669,-0.0865 39.99826,12.45094 39.99826,12.45094 0,0 -15.61704,-17.12967 -40.01005,-17.12967 -24.393018,0 -39.809452,17.18399 -39.809452,17.18399 z"
       id="path9" /><path
       style="display:inline;opacity:1;fill:#ffffff;fill-opacity:1;stroke:none;stroke-width:0.264583px;stroke-linecap:butt;stroke-linejoin:miter;stroke-opacity:1"
       d="m 65.891658,122.95468 c 0,0 11.454551,-12.41873 39.821242,-12.50526 28.36669,-0.0865 39.99826,12.45094 39.99826,12.45094 0,0 -15.61704,-17.12967 -40.01005,-17.12967 -24.393018,0 -39.809452,17.18399 -39.809452,17.18399 z"
       id="path11" /></g><g
     id="g10"
     transform="translate(-65.891658,-105.77069)"
     style="display:none"><path
       style="display:none;opacity:1;fill:url(#linearGradient19);fill-opacity:1;fill-rule:nonzero;stroke:none;stroke-width:0.264583px;stroke-linecap:butt;stroke-linejoin:miter;stroke-opacity:1"
       d="m 65.891658,122.95468 c 0,0 11.454551,-12.41873 39.821242,-12.50526 28.36669,-0.0865 39.99826,12.45094 39.99826,12.45094 0,0 -15.61704,-17.12967 -40.01005,-17.12967 -24.393018,0 -39.809452,17.18399 -39.809452,17.18399 z"
       id="path15" /><path
       style="display:inline;opacity:1;fill:url(#linearGradient11);stroke:none;stroke-width:0.264583px;stroke-linecap:butt;stroke-linejoin:miter;stroke-opacity:1"
       d="m 65.891658,122.95468 c 0,0 11.454551,-12.41873 39.821242,-12.50526 28.36669,-0.0865 39.99826,12.45094 39.99826,12.45094 0,0 -15.61704,-17.12967 -40.01005,-17.12967 -24.393018,0 -39.809452,17.18399 -39.809452,17.18399 z"
       id="path10" /></g></svg>
