<?xml version="1.0" encoding="UTF-8" standalone="no"?>
<svg
   width="83.851379mm"
   height="83.851379mm"
   viewBox="0 0 83.851379 83.851379"
   version="1.1"
   id="svg8"
   inkscape:version="1.3.2 (091e20ef0f, 2023-11-25)"
   sodipodi:docname="arc_icon.svg"
   xmlns:inkscape="http://www.inkscape.org/namespaces/inkscape"
   xmlns:sodipodi="http://sodipodi.sourceforge.net/DTD/sodipodi-0.dtd"
   xmlns="http://www.w3.org/2000/svg"
   xmlns:svg="http://www.w3.org/2000/svg"
   xmlns:rdf="http://www.w3.org/1999/02/22-rdf-syntax-ns#"
   xmlns:cc="http://creativecommons.org/ns#"
   xmlns:dc="http://purl.org/dc/elements/1.1/">
  <defs
     id="defs2" />
  <sodipodi:namedview
     id="base"
     pagecolor="#3d4043"
     bordercolor="#ffffff"
     borderopacity="0.53333333"
     inkscape:pageopacity="0"
     inkscape:pageshadow="2"
     inkscape:zoom="0.7"
     inkscape:cx="113.57143"
     inkscape:cy="358.57143"
     inkscape:document-units="mm"
     inkscape:current-layer="layer1"
     inkscape:document-rotation="0"
     showgrid="false"
     inkscape:pagecheckerboard="true"
     inkscape:showpageshadow="0"
     inkscape:deskcolor="#d1d1d1"
     inkscape:window-width="1672"
     inkscape:window-height="1020"
     inkscape:window-x="0"
     inkscape:window-y="0"
     inkscape:window-maximized="1" />
  <metadata
     id="metadata5">
    <rdf:RDF>
      <cc:Work
         rdf:about="">
        <dc:format>image/svg+xml</dc:format>
        <dc:type
           rdf:resource="http://purl.org/dc/dcmitype/StillImage" />
      </cc:Work>
    </rdf:RDF>
  </metadata>
  <g
     inkscape:label="Layer 1"
     inkscape:groupmode="layer"
     id="layer1"
     transform="translate(-60.011559,-17.297768)">
    <path
       style="fill:#ffffff;stroke:none;stroke-width:0;stroke-linecap:round;stroke-linejoin:round;stroke-miterlimit:0;stroke-dasharray:none"
       id="path1"
       sodipodi:type="arc"
       sodipodi:cx="101.93725"
       sodipodi:cy="59.223457"
       sodipodi:rx="41.92569"
       sodipodi:ry="41.92569"
       sodipodi:start="0"
       sodipodi:end="6.2541605"
       sodipodi:open="true"
       sodipodi:arc-type="arc"
       d="M 143.86294,59.223457 A 41.92569,41.92569 0 0 1 102.24147,101.14804 41.92569,41.92569 0 0 1 60.015973,59.831879 41.92569,41.92569 0 0 1 101.02466,17.307701 41.92569,41.92569 0 0 1 143.84528,58.006743" />
    <g
       id="g1"
       transform="translate(-0.94333277,1.289916)">
      <path
         style="font-size:49.7763px;line-height:1.25;font-family:'Century Gothic Std';-inkscape-font-specification:'Century Gothic Std, Normal';letter-spacing:0px;fill:#002147;stroke:#ffffff;stroke-width:0"
         d="m 133.77123,69.204501 c -2.48881,3.086131 -5.6745,4.629196 -9.50727,4.629196 -6.81936,0 -11.19967,-5.027406 -11.19967,-10.801457 0,-5.674498 4.43009,-10.602351 11.14989,-10.602351 3.9821,0 7.21756,1.493289 9.55705,4.579419 l 2.7377,-1.692394 c -2.43904,-4.081657 -7.06824,-6.172261 -12.14542,-6.172261 -8.71085,0 -14.78356,6.371366 -14.78356,14.136469 0,7.366892 5.82383,13.638705 14.53468,13.638705 5.32606,0 9.80593,-2.040828 12.3943,-5.973155 z"
         id="text8"
         inkscape:label="c"
         transform="scale(0.99194185,1.0081236)"
         aria-label="c" />
      <path
         id="path7"
         style="font-style:normal;font-weight:normal;font-size:49.6274px;line-height:1.25;font-family:sans-serif;letter-spacing:-1.24157px;display:inline;fill:#002147;fill-opacity:1;stroke:none;stroke-width:0;stroke-dasharray:none;stroke-opacity:1"
         d="m 83.859527,49.546469 c -7.746156,0 -13.905078,6.3719 -13.905078,13.94748 0,7.57559 6.007722,14.04741 13.804174,14.04741 4.174877,0 7.588034,-1.83176 10.505417,-5.34362 l 0.0024,4.58371 3.394274,-10e-4 -0.001,-26.5537 -3.392613,-6e-4 -0.0019,4.87869 c -2.665885,-3.71253 -6.079713,-5.55727 -10.405487,-5.55727 z m 26.624963,0 c -2.71619,0 -4.90263,1.48826 -6.91461,4.39809 l 0.001,-3.71959 -3.50462,7e-5 -0.002,26.5549 3.5059,1.3e-4 0.0231,-10.02554 c 0,-3.61221 0.10047,-6.37105 0.55314,-8.07681 0.98417,-3.58297 3.69526,-5.73476 6.14457,-5.82599 0.88537,-1.06362 1.79287,-1.83956 2.98796,-2.57977 -0.56225,-0.2671 -1.75672,-0.72546 -2.7949,-0.72546 z m -26.795629,3.39261 c 5.985664,0 10.575308,4.59948 10.575308,10.77032 0,6.62237 -5.073985,10.54103 -10.556652,10.54103 -5.985664,0 -10.42415,-4.88705 -10.42415,-10.65654 0,-5.71932 4.26893,-10.65481 10.405494,-10.65481 z"
         sodipodi:nodetypes="sssccccccsssccccscccssssssss"
         inkscape:label="ar" />
      <path
         style="display:inline;fill:#002147;fill-opacity:1;stroke:none;stroke-width:0.264583px;stroke-linecap:butt;stroke-linejoin:miter;stroke-opacity:1"
         d="m 62.970832,51.31524 c 0,0 11.454551,-12.41873 39.821238,-12.50526 28.36669,-0.0865 39.99826,12.45094 39.99826,12.45094 0,0 -15.61704,-17.12967 -40.01005,-17.12967 -24.393014,0 -39.809448,17.18399 -39.809448,17.18399 z"
         id="path9"
         sodipodi:nodetypes="czczc"
         inkscape:label="blue" />
    </g>
  </g>
</svg>
